# xmcd
# 
# Track frame offsets:
#     150
#     18953
#     36780
#     54181
#     73981
#     88430
#     103413
#     121437
#     138539
#     152168
#     168484
#     182502
#     200162
#     216812
#     231078
# 
# Disc length: 3257
# 
# Revision: 2
# Processed by: cddbd v1.5.2PL0 Copyright (c) Steve Scherf et al.
# Submitted via: fre:ac v1.0.17
# 
DISCID=df0cb70f
DTITLE=Various Artist - First 50 Years, Duets
DYEAR=2009
DGENRE=Country
TTITLE0=Kenny Rogers Featuring Dolly Parton - Islands In The Stream
TTITLE1=Kenny Rogers Featuring Ronnie Milsap - Make No Mistake, She's Mine
TTITLE2=Kenny Rogers Featuring Sheena Easton - We've Got Tonight
TTITLE3=Kenny Rogers Featuring Kim Carnes And James Ingram - What About Me?
TTITLE4=Kenny Rogers Featuring Tim McGraw - Owe Them More Than That
TTITLE5=Kenny Rogers Featuring Dottie West  - 'Til I Can Make It On My Own
TTITLE6=Kenny Rogers Featuring Don Henley - Calling Me
TTITLE7=Kenny Rogers Featuring Dolly Parton - Real Love
TTITLE8=Kenny Rogers Featuring Dottie West  - Every Time Two Fools Collide
TTITLE9=Kenny Rogers Featuring Anne Murray - If Ever I Fall In Love Again
TTITLE10=Kenny Rogers Featuring Dottie West  - All I Ever Need Is You
TTITLE11=Kenny Rogers Featuring Gladys Knight - If I Knew Then What I Know Now
TTITLE12=Kenny Rogers Featuring Kim Carnes - Don't Fall In Love With A Dreamer
TTITLE13=Kenny Rogers Featuring Travis Tritt - If I Were You
TTITLE14=Kenny Rogers Featuring Dolly Parton - Tell Me That You Love Me
EXTD=YEAR: 2009
EXTT0=
EXTT1=
EXTT2=
EXTT3=
EXTT4=
EXTT5=
EXTT6=
EXTT7=
EXTT8=
EXTT9=
EXTT10=
EXTT11=
EXTT12=
EXTT13=
EXTT14=
PLAYORDER=
